<?xml version="1.0" encoding="utf-8"?>
<!-- Generator: Adobe Illustrator 16.0.0, SVG Export Plug-In . SVG Version: 6.00 Build 0)  -->
<!DOCTYPE svg PUBLIC "-//W3C//DTD SVG 1.1//EN" "http://www.w3.org/Graphics/SVG/1.1/DTD/svg11.dtd">
<svg version="1.1" id="Layer_1" xmlns="http://www.w3.org/2000/svg" xmlns:xlink="http://www.w3.org/1999/xlink" x="0px" y="0px"
	 width="500px" height="150px" viewBox="0 0 500 150" enable-background="new 0 0 500 150" xml:space="preserve">
<g>
	<path fill="#03BDE9" d="M66.095,17.735c15.781,0,37.248,8.369,63.121,0c0,14.461-8.022,27.043-19.86,33.551
		c-0.463-3.006-2.051-5.916-4.369-8.7c2.029,4.829,3.152,10.132,3.152,15.698c0,11.961-5.182,22.708-13.417,30.13
		c-7.186,6.475-16.695,10.418-27.13,10.418c-7.689,0-14.877-2.141-21.004-5.855c-11.715-7.111-19.544-19.986-19.544-34.693
		C27.042,36.366,46.586,17.735,66.095,17.735"/>
	<path fill="#03BDE9" d="M52.713,115.498l29.754,4.006c3.384,0.457,6.126-1.916,6.126-5.303c0-3.383-2.742-6.492-6.126-6.949
		l-29.754-4.006c-3.384-0.457-6.127,1.918-6.127,5.301C46.586,111.932,49.33,115.041,52.713,115.498"/>
	<path fill="#03BDE9" d="M62.339,130.795l10.503,1.414c3.383,0.455,6.125-1.918,6.125-5.301c0-3.385-2.743-6.496-6.125-6.951
		l-10.503-1.414c-3.384-0.455-6.126,1.918-6.126,5.303S58.957,130.342,62.339,130.795"/>
	<path fill="#03BDE9" d="M44.837,100.436l45.507,6.127c3.384,0.455,6.126-1.918,6.126-5.303s-2.743-6.496-6.126-6.951l-45.507-6.127
		c-3.384-0.455-6.127,1.918-6.127,5.303S41.453,99.98,44.837,100.436"/>
</g>
<path fill="#FFFFFF" d="M43.323,49.63c0,4.026,3.264,7.293,7.292,7.293c4.028,0,7.294-3.267,7.294-7.293
	c0-4.028-3.265-7.293-7.294-7.293C46.586,42.336,43.323,45.602,43.323,49.63"/>
<path fill="#3B3B3C" d="M25.292,66.491c-10.064-3.662-17.438-7.152-17.438-7.152s7.375-3.493,17.438-7.155
	C24.449,56.913,24.449,61.761,25.292,66.491"/>
<g enable-background="new    ">
	<path fill="#3B3B3C" d="M160.109,60.487c2.407-2.247,5.055-4.071,7.943-5.477c2.888-1.403,6.278-2.105,10.169-2.105
		c3.37,0,6.358,0.571,8.966,1.715c2.607,1.143,4.784,2.748,6.529,4.813c1.745,2.066,3.069,4.534,3.972,7.401
		c0.902,2.869,1.354,6.028,1.354,9.478v39.295h-14.863V76.312c0-3.77-0.863-6.689-2.588-8.755c-1.725-2.065-4.353-3.1-7.883-3.1
		c-2.568,0-4.975,0.582-7.221,1.745c-2.247,1.164-4.373,2.749-6.378,4.754v44.651h-14.863V26.186h14.863V60.487z"/>
	<path fill="#3B3B3C" d="M266.317,53.867v61.741h-9.087c-1.965,0-3.209-0.902-3.73-2.709l-1.023-4.934
		c-2.527,2.568-5.315,4.645-8.364,6.229c-3.049,1.584-6.64,2.377-10.771,2.377c-3.37,0-6.348-0.572-8.936-1.715
		c-2.587-1.145-4.764-2.758-6.529-4.846c-1.766-2.084-3.099-4.562-4.001-7.432c-0.903-2.867-1.354-6.025-1.354-9.477V53.867h14.863
		v39.235c0,3.771,0.873,6.689,2.618,8.756s4.362,3.098,7.853,3.098c2.567,0,4.974-0.57,7.221-1.715
		c2.246-1.143,4.372-2.717,6.378-4.723V53.867H266.317z"/>
	<path fill="#3B3B3C" d="M292.434,86.602c0.24,3.17,0.802,5.908,1.685,8.215c0.882,2.307,2.046,4.213,3.49,5.717
		s3.159,2.627,5.146,3.369c1.985,0.744,4.182,1.113,6.589,1.113s4.483-0.279,6.228-0.842c1.746-0.561,3.27-1.184,4.574-1.865
		c1.303-0.682,2.445-1.303,3.43-1.865c0.982-0.562,1.936-0.844,2.858-0.844c1.243,0,2.166,0.463,2.769,1.385l4.271,5.416
		c-1.645,1.926-3.49,3.541-5.535,4.844c-2.047,1.305-4.184,2.348-6.409,3.129c-2.227,0.783-4.493,1.334-6.8,1.654
		c-2.308,0.322-4.543,0.482-6.71,0.482c-4.293,0-8.284-0.713-11.975-2.137c-3.691-1.424-6.9-3.529-9.628-6.318
		c-2.729-2.787-4.875-6.236-6.439-10.35c-1.564-4.111-2.346-8.877-2.346-14.291c0-4.213,0.682-8.174,2.045-11.885
		c1.363-3.71,3.319-6.94,5.867-9.688c2.547-2.747,5.656-4.924,9.328-6.529c3.67-1.604,7.812-2.406,12.426-2.406
		c3.891,0,7.481,0.622,10.771,1.865c3.289,1.244,6.117,3.06,8.484,5.445c2.367,2.388,4.222,5.316,5.566,8.786
		c1.344,3.47,2.016,7.432,2.016,11.885c0,2.246-0.24,3.76-0.723,4.543c-0.48,0.781-1.404,1.172-2.768,1.172H292.434z
		 M320.775,77.637c0-1.926-0.271-3.741-0.812-5.446c-0.541-1.705-1.354-3.199-2.437-4.483c-1.083-1.283-2.458-2.296-4.122-3.039
		c-1.665-0.742-3.602-1.113-5.807-1.113c-4.293,0-7.672,1.225-10.14,3.671c-2.468,2.447-4.042,5.918-4.724,10.411H320.775z"/>
	<path fill="#3B3B3C" d="M360.672,53.867v63.846c0,2.688-0.352,5.215-1.053,7.582c-0.703,2.367-1.826,4.443-3.371,6.229
		s-3.57,3.189-6.077,4.213c-2.507,1.021-5.565,1.533-9.177,1.533c-1.404,0-2.708-0.09-3.911-0.27
		c-1.204-0.182-2.446-0.473-3.731-0.873l0.542-8.004c0.12-0.803,0.442-1.314,0.963-1.533c0.522-0.223,1.524-0.332,3.009-0.332
		c1.483,0,2.738-0.15,3.761-0.451s1.835-0.783,2.437-1.443c0.603-0.662,1.033-1.535,1.295-2.619c0.26-1.082,0.391-2.428,0.391-4.031
		V53.867H360.672z M362.717,35.875c0,1.284-0.261,2.488-0.781,3.61c-0.521,1.124-1.215,2.106-2.076,2.949
		c-0.863,0.842-1.887,1.515-3.069,2.016c-1.184,0.502-2.437,0.752-3.761,0.752c-1.284,0-2.488-0.25-3.61-0.752
		c-1.124-0.501-2.106-1.174-2.948-2.016c-0.843-0.843-1.516-1.825-2.017-2.949c-0.502-1.122-0.752-2.326-0.752-3.61
		c0-1.323,0.25-2.566,0.752-3.73c0.501-1.163,1.174-2.166,2.017-3.009c0.842-0.843,1.824-1.514,2.948-2.016
		c1.122-0.502,2.326-0.753,3.61-0.753c1.324,0,2.577,0.251,3.761,0.753c1.183,0.502,2.206,1.173,3.069,2.016
		c0.861,0.843,1.555,1.846,2.076,3.009C362.456,33.308,362.717,34.551,362.717,35.875z"/>
	<path fill="#3B3B3C" d="M374.391,62.472c7.102-6.499,15.646-9.748,25.635-9.748c3.611,0,6.84,0.592,9.689,1.774
		c2.848,1.185,5.254,2.829,7.221,4.935c1.965,2.106,3.46,4.624,4.482,7.552c1.023,2.93,1.535,6.139,1.535,9.628v38.994h-6.74
		c-1.404,0-2.488-0.211-3.249-0.633c-0.763-0.42-1.364-1.273-1.806-2.557l-1.324-4.453c-1.564,1.404-3.089,2.639-4.572,3.701
		c-1.485,1.062-3.029,1.955-4.634,2.678c-1.604,0.721-3.32,1.273-5.146,1.654c-1.826,0.381-3.842,0.572-6.047,0.572
		c-2.608,0-5.016-0.352-7.222-1.053c-2.206-0.703-4.112-1.756-5.716-3.16c-1.605-1.404-2.85-3.148-3.731-5.234
		c-0.883-2.086-1.323-4.514-1.323-7.281c0-1.564,0.26-3.119,0.781-4.664s1.374-3.018,2.558-4.424
		c1.183-1.402,2.718-2.727,4.604-3.971s4.202-2.326,6.95-3.25c2.748-0.922,5.947-1.674,9.598-2.256s7.823-0.934,12.518-1.053v-3.611
		c0-4.131-0.884-7.191-2.648-9.176c-1.766-1.986-4.312-2.979-7.643-2.979c-2.406,0-4.402,0.281-5.986,0.843
		c-1.586,0.562-2.979,1.194-4.184,1.896c-1.203,0.702-2.297,1.334-3.279,1.896c-0.982,0.562-2.076,0.843-3.279,0.843
		c-1.043,0-1.926-0.271-2.647-0.812s-1.304-1.174-1.745-1.896L374.391,62.472z M408.451,89.25
		c-4.294,0.201-7.904,0.572-10.832,1.113c-2.93,0.541-5.275,1.234-7.041,2.076s-3.029,1.826-3.791,2.949s-1.143,2.346-1.143,3.67
		c0,2.607,0.771,4.475,2.316,5.596c1.544,1.125,3.56,1.686,6.047,1.686c3.049,0,5.688-0.551,7.914-1.654s4.402-2.777,6.529-5.025
		V89.25z"/>
	<path fill="#3B3B3C" d="M491.251,53.867l-33.638,78.709c-0.442,1.043-1.014,1.836-1.716,2.377s-1.774,0.812-3.219,0.812h-11.072
		l11.554-24.793l-24.973-57.106h13.058c1.163,0,2.076,0.281,2.738,0.843c0.661,0.562,1.152,1.204,1.474,1.926l13.119,32.013
		c0.44,1.084,0.812,2.166,1.113,3.25c0.301,1.082,0.591,2.186,0.872,3.309c0.361-1.123,0.722-2.236,1.083-3.34
		c0.361-1.102,0.762-2.195,1.204-3.279l12.396-31.953c0.32-0.802,0.852-1.464,1.595-1.986c0.742-0.521,1.574-0.782,2.497-0.782
		H491.251z"/>
</g>
</svg>
