<?xml version="1.0" encoding="utf-8"?>
<!-- Generator: Adobe Illustrator 16.0.0, SVG Export Plug-In . SVG Version: 6.00 Build 0)  -->
<!DOCTYPE svg PUBLIC "-//W3C//DTD SVG 1.1//EN" "http://www.w3.org/Graphics/SVG/1.1/DTD/svg11.dtd">
<svg version="1.1" id="Layer_1" xmlns="http://www.w3.org/2000/svg" xmlns:xlink="http://www.w3.org/1999/xlink" x="0px" y="0px"
	 width="500px" height="150px" viewBox="156 221.5 500 150" enable-background="new 156 221.5 500 150" xml:space="preserve">
<g>
	<path fill="#03BDE9" d="M220.095,236.597c15.781,0,37.248,8.37,63.121,0c0,14.461-8.023,27.044-19.86,33.551
		c-0.463-3.006-2.051-5.915-4.37-8.7c2.03,4.829,3.153,10.132,3.153,15.698c0,11.962-5.182,22.709-13.418,30.132
		c-7.186,6.474-16.695,10.417-27.13,10.417c-7.689,0-14.877-2.141-21.004-5.856c-11.715-7.111-19.544-19.986-19.544-34.692
		C181.042,255.229,200.586,236.597,220.095,236.597"/>
	<path fill="#03BDE9" d="M206.713,334.361l29.754,4.006c3.384,0.456,6.126-1.917,6.126-5.302c0-3.383-2.742-6.493-6.126-6.95
		l-29.754-4.006c-3.384-0.456-6.127,1.918-6.127,5.301C200.586,330.794,203.33,333.904,206.713,334.361"/>
	<path fill="#03BDE9" d="M216.339,349.658l10.503,1.414c3.383,0.456,6.125-1.917,6.125-5.301s-2.743-6.495-6.125-6.951
		l-10.503-1.414c-3.384-0.455-6.126,1.917-6.126,5.302S212.957,349.204,216.339,349.658"/>
	<path fill="#03BDE9" d="M198.837,319.298l45.507,6.127c3.384,0.455,6.126-1.918,6.126-5.302c0-3.385-2.743-6.496-6.126-6.951
		l-45.507-6.127c-3.384-0.455-6.127,1.917-6.127,5.302S195.453,318.843,198.837,319.298"/>
</g>
<path fill="#FFFFFF" d="M197.323,268.493c0,4.027,3.264,7.293,7.292,7.293c4.028,0,7.294-3.266,7.294-7.293
	c0-4.028-3.265-7.293-7.294-7.293C200.586,261.199,197.323,264.465,197.323,268.493"/>
<path fill="#3B3B3C" d="M179.292,285.353c-10.064-3.661-17.438-7.152-17.438-7.152s7.375-3.493,17.438-7.155
	C178.449,275.775,178.449,280.624,179.292,285.353"/>
<text transform="matrix(1 0 0 1 291.9043 334.4697)" fill="#3B3B3C" font-family="'Lato-Bold'" font-size="120.3505">huejay</text>
</svg>
